<?xml version="1.0" encoding="UTF-8" ?>
<!DOCTYPE svg PUBLIC "-//W3C//DTD SVG 1.1//EN" "http://www.w3.org/Graphics/SVG/1.1/DTD/svg11.dtd">
<svg width="23pt" height="16pt" viewBox="0 0 23 16" version="1.1" xmlns="http://www.w3.org/2000/svg">
<g id="#6aa6c8ff">
<path fill="#6aa6c8" opacity="1.00" d=" M 7.89 0.00 L 7.89 0.00 C 8.29 0.34 9.09 1.03 9.49 1.38 C 7.62 3.20 5.84 5.11 3.98 6.94 C 10.32 6.94 16.66 6.94 23.00 6.94 L 23.00 9.06 C 16.66 9.06 10.32 9.06 3.98 9.06 C 5.82 10.90 7.63 12.77 9.48 14.60 C 9.09 14.95 8.31 15.65 7.92 16.00 L 7.89 16.00 C 5.21 13.39 2.57 10.74 0.00 8.03 L 0.00 7.97 C 2.58 5.26 5.21 2.61 7.89 0.00 Z" />
</g>
</svg>
