<?xml version="1.0" encoding="UTF-8" ?>
<!DOCTYPE svg PUBLIC "-//W3C//DTD SVG 1.1//EN" "http://www.w3.org/Graphics/SVG/1.1/DTD/svg11.dtd">
<svg width="23pt" height="16pt" viewBox="0 0 23 16" version="1.1" xmlns="http://www.w3.org/2000/svg">
<g id="#6aa6c8ff">
<path fill="#6aa6c8" opacity="1.00" d=" M 14.87 0.00 L 15.11 0.00 C 17.78 2.61 20.42 5.26 23.00 7.96 L 23.00 8.02 C 20.41 10.71 17.81 13.40 15.12 16.00 L 15.10 16.00 C 14.70 15.65 13.91 14.96 13.52 14.61 C 15.40 12.81 17.14 10.87 19.02 9.06 C 12.68 9.06 6.34 9.06 0.00 9.06 L 0.00 6.94 C 6.34 6.94 12.68 6.94 19.03 6.93 C 17.23 5.16 15.42 3.39 13.73 1.51 C 14.01 1.14 14.59 0.38 14.87 0.00 Z" />
</g>
</svg>
