<?xml version="1.0" encoding="UTF-8" ?>
<!DOCTYPE svg PUBLIC "-//W3C//DTD SVG 1.1//EN" "http://www.w3.org/Graphics/SVG/1.1/DTD/svg11.dtd">
<svg width="52pt" height="52pt" viewBox="0 0 52 52" version="1.1" xmlns="http://www.w3.org/2000/svg">
<g id="#6aa6c6ff">
<path fill="#6aa6c6" opacity="1.00" d=" M 20.93 0.00 L 30.69 0.00 C 32.02 1.20 31.32 3.04 31.51 4.57 C 33.51 5.14 35.41 5.99 37.26 6.93 C 38.53 6.10 39.29 3.94 41.08 4.39 C 43.38 6.44 45.57 8.63 47.61 10.92 C 48.05 12.72 45.90 13.47 45.07 14.75 C 46.02 16.59 46.85 18.49 47.43 20.48 C 48.96 20.53 50.53 20.35 52.00 20.93 L 52.00 30.69 C 50.80 32.02 48.96 31.32 47.43 31.51 C 46.88 33.54 45.96 35.41 45.08 37.30 C 45.91 38.54 48.04 39.28 47.62 41.06 C 45.57 43.37 43.38 45.57 41.07 47.62 C 39.28 48.03 38.53 45.91 37.26 45.07 C 35.41 46.01 33.51 46.85 31.52 47.43 C 31.47 48.96 31.65 50.53 31.08 52.00 L 21.31 52.00 C 19.98 50.81 20.68 48.96 20.49 47.43 C 18.49 46.85 16.59 46.01 14.74 45.07 C 13.48 45.91 12.73 47.99 10.95 47.63 C 8.63 45.58 6.44 43.38 4.38 41.07 C 3.97 39.28 6.09 38.53 6.93 37.26 C 5.99 35.41 5.14 33.52 4.58 31.52 C 3.04 31.46 1.47 31.65 0.00 31.07 L 0.00 21.31 C 1.20 19.98 3.03 20.67 4.57 20.49 C 5.15 18.49 5.99 16.59 6.93 14.74 C 6.09 13.48 4.01 12.73 4.37 10.96 C 6.42 8.63 8.62 6.42 10.95 4.38 C 12.73 3.99 13.48 6.10 14.75 6.93 C 16.59 5.99 18.49 5.15 20.48 4.57 C 20.53 3.04 20.35 1.47 20.93 0.00 M 20.42 13.70 C 15.09 16.05 11.68 22.11 12.63 27.90 C 13.47 35.05 20.78 40.60 27.91 39.38 C 35.87 38.47 41.57 29.56 38.89 21.97 C 36.76 14.46 27.47 10.21 20.42 13.70 Z" />
<path fill="#6aa6c6" opacity="1.00" d=" M 17.43 32.37 C 12.41 25.77 17.57 15.06 26.00 15.47 C 34.42 15.06 39.58 25.75 34.58 32.35 C 33.70 30.04 32.34 27.84 30.11 26.64 C 32.54 23.43 30.09 18.22 25.95 18.42 C 21.86 18.31 19.48 23.48 21.91 26.64 C 19.67 27.84 18.29 30.05 17.43 32.37 Z" />
<path fill="#6aa6c6" opacity="1.00" d=" M 25.51 21.46 C 28.00 20.70 29.24 24.93 26.58 25.48 C 24.04 26.46 22.72 21.95 25.51 21.46 Z" />
<path fill="#6aa6c6" opacity="1.00" d=" M 20.44 34.95 C 19.90 31.70 22.56 28.30 25.94 28.40 C 29.39 28.18 32.11 31.65 31.56 34.96 C 28.24 37.05 23.75 37.05 20.44 34.95 Z" />
</g>
</svg>
