<?xml version="1.0" encoding="UTF-8" ?>
<!DOCTYPE svg PUBLIC "-//W3C//DTD SVG 1.1//EN" "http://www.w3.org/Graphics/SVG/1.1/DTD/svg11.dtd">
<svg width="56pt" height="39pt" viewBox="0 0 56 39" version="1.1" xmlns="http://www.w3.org/2000/svg">
<g id="#6aa6c6ff">
<path fill="#6aa6c6" opacity="1.00" d=" M 31.62 0.00 L 34.34 0.00 C 39.48 0.76 42.63 7.05 39.73 11.49 C 37.05 16.37 29.19 16.35 26.53 11.46 C 23.72 7.09 26.71 1.08 31.62 0.00 M 29.66 6.58 C 30.21 7.13 31.32 8.22 31.87 8.77 C 32.43 8.22 33.56 7.10 34.12 6.55 C 33.38 5.80 32.64 5.05 31.90 4.31 C 31.15 5.07 30.40 5.82 29.66 6.58 Z" />
<path fill="#6aa6c6" opacity="1.00" d=" M 47.23 7.79 C 46.82 2.76 54.39 1.63 56.00 6.23 L 56.00 8.67 C 54.81 13.33 47.27 12.72 47.23 7.79 Z" />
<path fill="#6aa6c6" opacity="1.00" d=" M 14.28 6.36 C 17.21 5.48 20.38 6.11 23.40 5.95 C 23.40 6.78 23.40 8.43 23.39 9.25 C 20.81 9.24 18.23 9.25 15.65 9.27 C 15.61 9.91 15.54 11.20 15.51 11.85 C 18.41 11.87 21.31 11.88 24.21 11.90 C 26.84 16.67 32.99 18.70 37.92 16.24 C 37.83 20.95 37.89 25.66 37.88 30.37 C 32.45 30.37 27.02 30.38 21.59 30.37 C 19.74 25.25 13.83 22.49 8.73 24.52 C 8.77 20.31 8.74 16.10 8.75 11.89 C 9.61 11.88 11.31 11.87 12.16 11.87 C 12.23 9.89 12.10 7.31 14.28 6.36 Z" />
<path fill="#6aa6c6" opacity="1.00" d=" M 0.00 16.76 C 0.70 13.63 3.58 12.04 6.52 11.55 C 6.72 17.91 6.64 24.28 6.57 30.65 C 3.63 30.27 0.87 28.67 0.00 25.69 L 0.00 16.76 Z" />
<path fill="#6aa6c6" opacity="1.00" d=" M 40.02 11.73 C 42.83 11.89 45.83 13.45 46.43 16.43 C 46.78 19.46 46.75 22.55 46.47 25.59 C 46.00 28.68 42.91 30.37 40.02 30.53 C 39.98 24.26 39.99 17.99 40.02 11.73 Z" />
<path fill="#6aa6c6" opacity="1.00" d=" M 49.94 15.04 C 50.79 15.04 52.48 15.05 53.32 15.05 C 53.25 19.71 53.43 24.37 53.25 29.03 C 53.22 32.37 50.40 35.37 47.09 35.68 C 44.73 35.92 42.36 35.82 40.00 35.81 C 40.00 34.70 40.01 33.60 40.02 32.49 C 43.25 32.21 48.22 33.76 49.76 29.87 C 50.19 24.95 49.82 19.98 49.94 15.04 Z" />
<path fill="#6aa6c6" opacity="1.00" d=" M 7.21 30.30 C 9.16 26.07 15.88 26.04 17.91 30.21 C 19.93 33.67 17.55 38.08 13.84 39.00 L 11.44 39.00 C 7.68 38.20 5.25 33.78 7.21 30.30 Z" />
<path fill="#6aa6c6" opacity="1.00" d=" M 28.12 33.57 C 31.02 33.56 33.92 33.56 36.81 33.57 C 36.81 35.38 36.81 37.19 36.82 39.00 L 30.94 39.00 C 29.92 37.23 29.04 35.39 28.12 33.57 Z" />
</g>
</svg>
