<?xml version="1.0" encoding="UTF-8" ?>
<!DOCTYPE svg PUBLIC "-//W3C//DTD SVG 1.1//EN" "http://www.w3.org/Graphics/SVG/1.1/DTD/svg11.dtd">
<svg width="54pt" height="34pt" viewBox="0 0 54 34" version="1.1" xmlns="http://www.w3.org/2000/svg">
<g id="#6aa6c6ff">
<path fill="#6aa6c6" opacity="1.00" d=" M 0.00 0.00 L 35.50 0.00 C 36.28 6.16 35.71 12.38 35.88 18.56 C 23.92 18.56 11.96 18.56 0.00 18.56 L 0.00 0.00 M 4.92 4.20 C 4.52 7.43 4.54 10.73 4.84 13.98 C 5.56 15.48 6.75 15.10 7.63 14.02 C 7.86 10.81 7.90 7.57 7.59 4.36 C 7.22 4.15 6.49 3.71 6.12 3.50 L 4.92 4.20 M 12.83 4.00 C 12.41 7.52 11.95 11.37 13.08 14.77 C 13.56 14.77 14.53 14.78 15.02 14.79 C 16.09 11.49 15.55 7.87 15.42 4.47 C 15.10 4.23 14.47 3.77 14.15 3.54 L 12.83 4.00 M 20.46 4.38 C 20.40 7.84 19.64 11.62 20.98 14.88 C 21.45 14.83 22.39 14.73 22.86 14.68 C 23.84 11.92 23.32 8.87 23.34 6.00 C 23.82 4.10 21.76 2.63 20.46 4.38 M 28.32 4.14 C 27.89 7.38 27.89 10.69 28.24 13.93 C 28.57 15.32 30.67 15.21 31.01 13.94 C 31.36 11.30 31.25 8.62 31.15 5.97 C 31.55 4.13 29.82 2.91 28.32 4.14 Z" />
<path fill="#6aa6c6" opacity="1.00" d=" M 39.01 9.24 C 40.15 9.24 41.30 9.25 42.45 9.26 C 42.50 13.07 42.18 16.90 42.62 20.70 C 42.80 20.88 43.16 21.24 43.35 21.43 C 46.88 21.87 50.45 21.58 54.00 21.61 L 54.00 30.09 C 53.31 30.49 52.62 30.88 51.93 31.27 C 51.07 28.71 50.43 25.54 47.60 24.43 C 44.62 22.77 41.38 24.34 38.94 26.19 C 39.05 20.54 38.98 14.89 39.01 9.24 Z" />
<path fill="#6aa6c6" opacity="1.00" d=" M 45.51 9.18 C 47.12 9.33 48.87 8.99 50.39 9.67 C 51.77 12.50 52.53 15.60 53.59 18.56 C 50.89 18.56 48.20 18.56 45.50 18.56 C 45.50 15.43 45.50 12.30 45.51 9.18 Z" />
<path fill="#6aa6c6" opacity="1.00" d=" M 0.00 21.63 C 11.96 21.62 23.92 21.63 35.88 21.63 C 35.87 24.73 35.88 27.83 35.88 30.94 C 31.90 30.94 27.92 30.94 23.95 30.94 C 23.20 28.67 22.67 25.93 20.33 24.74 C 18.16 23.24 15.49 24.00 13.11 24.40 C 10.68 24.00 7.94 23.22 5.74 24.79 C 3.35 26.07 2.94 28.96 2.08 31.26 C 1.38 30.88 0.69 30.49 0.00 30.10 L 0.00 21.63 Z" />
<path fill="#6aa6c6" opacity="1.00" d=" M 6.77 27.79 C 8.70 25.75 11.46 27.16 13.10 28.78 C 14.74 27.17 17.43 25.75 19.37 27.77 C 21.53 29.68 20.23 32.66 18.17 34.00 L 15.42 34.00 C 14.71 33.07 14.08 32.03 13.12 31.33 C 12.12 32.03 11.43 33.06 10.70 34.00 L 8.27 34.00 C 5.88 32.98 4.61 29.71 6.77 27.79 Z" />
<path fill="#6aa6c6" opacity="1.00" d=" M 40.91 29.94 C 41.17 26.62 46.08 25.59 47.76 28.41 C 49.21 30.43 47.77 32.74 46.07 34.00 L 43.49 34.00 C 42.12 33.08 40.53 31.82 40.91 29.94 Z" />
</g>
</svg>
