<?xml version="1.0" encoding="UTF-8" ?>
<!DOCTYPE svg PUBLIC "-//W3C//DTD SVG 1.1//EN" "http://www.w3.org/Graphics/SVG/1.1/DTD/svg11.dtd">
<svg width="47pt" height="47pt" viewBox="0 0 47 47" version="1.1" xmlns="http://www.w3.org/2000/svg">
<g id="#6aa6c6ff">
<path fill="#6aa6c6" opacity="1.00" d=" M 4.69 0.00 L 36.52 0.00 L 36.48 1.63 C 27.31 1.62 18.14 1.63 8.98 1.65 C 7.35 1.80 5.83 1.19 4.69 0.00 Z" />
<path fill="#6aa6c6" opacity="1.00" d=" M 7.34 3.20 C 16.50 3.17 25.66 3.19 34.83 3.18 C 31.47 9.17 28.07 15.13 24.70 21.10 C 22.34 21.12 19.98 21.13 17.61 21.18 C 14.06 15.26 10.78 9.18 7.34 3.20 Z" />
<path fill="#6aa6c6" opacity="1.00" d=" M 30.11 14.64 C 30.85 13.37 31.60 12.10 32.35 10.84 C 32.43 12.09 32.50 13.35 32.56 14.60 C 31.95 14.61 30.72 14.63 30.11 14.64 Z" />
<path fill="#6aa6c6" opacity="1.00" d=" M 34.15 11.15 C 35.86 11.48 37.57 11.83 39.28 12.21 C 38.74 13.22 38.20 14.22 37.66 15.22 C 36.45 14.98 35.23 14.75 34.01 14.52 C 34.05 13.39 34.10 12.27 34.15 11.15 Z" />
<path fill="#6aa6c6" opacity="1.00" d=" M 39.00 15.86 C 39.59 14.89 40.18 13.92 40.77 12.95 C 42.13 14.18 43.48 15.42 44.79 16.70 C 44.07 17.14 42.63 18.02 41.91 18.45 C 40.94 17.58 39.97 16.72 39.00 15.86 Z" />
<path fill="#6aa6c6" opacity="1.00" d=" M 42.73 19.67 C 43.74 19.15 44.74 18.64 45.75 18.12 C 46.18 19.58 46.62 21.03 47.00 22.50 L 47.00 23.57 C 45.95 23.56 44.91 23.56 43.86 23.56 C 43.49 22.26 43.11 20.96 42.73 19.67 Z" />
<path fill="#6aa6c6" opacity="1.00" d=" M 9.89 24.06 C 10.18 23.76 10.77 23.16 11.06 22.85 C 16.69 22.45 22.36 22.80 28.01 22.67 C 29.50 22.76 31.61 22.34 32.30 24.13 C 32.78 30.13 32.36 36.18 32.50 42.20 L 30.82 42.18 C 30.68 36.52 31.09 30.85 30.63 25.21 C 30.39 25.02 29.92 24.65 29.68 24.46 C 24.15 24.15 18.58 24.28 13.04 24.39 C 11.66 24.26 11.25 25.83 11.39 26.90 C 11.31 31.99 11.41 37.09 11.37 42.18 L 9.69 42.19 C 9.82 36.15 9.40 30.09 9.89 24.06 Z" />
<path fill="#6aa6c6" opacity="1.00" d=" M 42.72 28.92 C 43.11 27.63 43.48 26.34 43.86 25.05 C 44.64 25.06 46.21 25.06 47.00 25.07 L 47.00 26.12 C 46.61 27.60 46.16 29.06 45.72 30.52 C 44.97 30.12 43.47 29.32 42.72 28.92 Z" />
<path fill="#6aa6c6" opacity="1.00" d=" M 12.94 25.88 C 13.77 25.88 15.42 25.88 16.25 25.88 C 16.25 27.50 16.25 29.13 16.25 30.75 C 19.48 30.75 22.71 30.75 25.94 30.75 C 25.94 29.13 25.94 27.50 25.94 25.88 C 26.77 25.88 28.42 25.88 29.25 25.88 C 29.25 31.31 29.25 36.75 29.25 42.18 C 23.81 42.19 18.38 42.19 12.94 42.19 C 12.94 36.75 12.94 31.31 12.94 25.88 M 14.45 32.47 C 14.53 32.85 14.70 33.63 14.78 34.01 C 18.95 33.86 23.16 34.31 27.29 33.77 C 27.48 33.46 27.85 32.85 28.03 32.55 C 23.51 32.35 18.98 32.45 14.45 32.47 M 14.63 37.25 C 18.94 37.25 23.25 37.25 27.56 37.25 L 27.56 35.69 C 23.25 35.69 18.95 35.69 14.64 35.69 C 14.64 36.08 14.63 36.86 14.63 37.25 M 14.46 40.45 C 19.00 40.49 23.55 40.62 28.09 40.36 C 27.82 40.04 27.27 39.41 27.00 39.09 C 22.92 38.73 18.82 39.02 14.74 38.94 C 14.67 39.32 14.53 40.08 14.46 40.45 Z" />
<path fill="#6aa6c6" opacity="1.00" d=" M 17.81 25.88 C 20.00 25.88 22.19 25.88 24.37 25.88 C 24.37 26.70 24.37 28.36 24.37 29.19 C 22.19 29.19 20.00 29.19 17.81 29.19 C 17.81 28.36 17.81 26.70 17.81 25.88 Z" />
<path fill="#6aa6c6" opacity="1.00" d=" M 0.00 28.31 C 0.81 28.31 2.44 28.32 3.25 28.32 C 3.25 31.04 3.25 33.76 3.25 36.49 C 2.44 36.49 0.81 36.50 0.00 36.51 L 0.00 28.31 Z" />
<path fill="#6aa6c6" opacity="1.00" d=" M 4.81 30.75 C 5.92 30.75 7.02 30.75 8.12 30.75 C 8.12 31.58 8.12 33.23 8.12 34.06 C 7.30 34.06 5.64 34.06 4.81 34.06 C 4.81 33.23 4.81 31.58 4.81 30.75 Z" />
<path fill="#6aa6c6" opacity="1.00" d=" M 39.03 32.67 C 40.00 31.85 40.96 31.02 41.92 30.19 C 42.64 30.61 44.10 31.47 44.82 31.90 C 43.48 33.19 42.10 34.44 40.71 35.67 C 40.15 34.67 39.59 33.67 39.03 32.67 Z" />
<path fill="#6aa6c6" opacity="1.00" d=" M 33.99 34.13 C 35.22 33.89 36.46 33.65 37.69 33.41 C 38.09 34.15 38.88 35.63 39.27 36.37 C 37.57 36.76 35.87 37.13 34.16 37.48 C 34.10 36.36 34.04 35.25 33.99 34.13 Z" />
<path fill="#6aa6c6" opacity="1.00" d=" M 4.99 47.00 C 5.99 46.05 6.22 43.75 7.93 43.84 C 16.63 43.65 25.35 43.72 34.06 43.81 C 35.85 43.65 36.18 46.03 37.26 47.00 L 4.99 47.00 Z" />
</g>
</svg>
