<?xml version="1.0" encoding="utf-8"?>
<!-- Generator: Adobe Illustrator 22.0.1, SVG Export Plug-In . SVG Version: 6.00 Build 0)  -->
<svg version="1.1" id="Layer_1" xmlns="http://www.w3.org/2000/svg" xmlns:xlink="http://www.w3.org/1999/xlink" x="0px" y="0px"
	 viewBox="0 0 512 512" style="enable-background:new 0 0 512 512;" xml:space="preserve">
<style type="text/css">
	.st0{fill:#6AA6C7;}
</style>
<g id="Page-1">
	<g id="_x30_03---Breathable-Fabric">
		<path id="Rectangle-path" class="st0" d="M25.6,384h460.8c9.4,0,17.1,7.6,17.1,17.1l0,0c0,9.4-7.6,17.1-17.1,17.1H25.6
			c-9.4,0-17.1-7.6-17.1-17.1l0,0C8.5,391.6,16.2,384,25.6,384z"/>
		<path id="Rectangle-path_1_" class="st0" d="M25.6,298.7h460.8c9.4,0,17.1,7.6,17.1,17.1l0,0c0,9.4-7.6,17.1-17.1,17.1H25.6
			c-9.4,0-17.1-7.6-17.1-17.1l0,0C8.5,306.3,16.2,298.7,25.6,298.7z"/>
		<path id="Shape" class="st0" d="M64.3,341.3l-22.8,34.1H25.6c-1.6,0-3.3,0.2-4.9,0.5l23.1-34.6H64.3z"/>
		<path id="Shape_1_" class="st0" d="M106.9,341.3l-22.8,34.1H63.7l22.8-34.1H106.9z"/>
		<path id="Shape_2_" class="st0" d="M149.6,341.3l-22.8,34.1h-20.4l22.8-34.1H149.6z"/>
		<path id="Shape_3_" class="st0" d="M192.3,341.3l-22.8,34.1h-20.4l22.8-34.1H192.3z"/>
		<path id="Shape_4_" class="st0" d="M234.9,341.3l-22.8,34.1h-20.4l22.8-34.1H234.9z"/>
		<path id="Shape_5_" class="st0" d="M277.6,341.3l-22.8,34.1h-20.4l22.8-34.1H277.6z"/>
		<path id="Shape_6_" class="st0" d="M320.3,341.3l-22.8,34.1h-20.4l22.8-34.1H320.3z"/>
		<path id="Shape_7_" class="st0" d="M362.9,341.3l-22.8,34.1h-20.4l22.8-34.1H362.9z"/>
		<path id="Shape_8_" class="st0" d="M405.6,341.3l-22.8,34.1h-20.4l22.8-34.1H405.6z"/>
		<path id="Shape_9_" class="st0" d="M448.3,341.3l-22.8,34.1h-20.4l22.8-34.1H448.3z"/>
		<path id="Shape_10_" class="st0" d="M491.3,340.8l-23.1,34.6h-20.4l22.8-34.1h15.9C488,341.3,489.7,341.2,491.3,340.8z"/>
		<path id="Shape_11_" class="st0" d="M362.4,110.9h-29.6c-4.7,0-8.5,3.8-8.5,8.5v162.1H187.7V119.5c0-4.7-3.8-8.5-8.5-8.5h-29.6
			c-3.5,0-6.7-2.1-7.9-5.4c-1.3-3.3-0.4-7,2.1-9.4L250.2,2.3c3.3-3.1,8.4-3.1,11.6,0l106.4,93.9c2.6,2.4,3.4,6.1,2.1,9.4
			C369,108.8,365.9,110.9,362.4,110.9L362.4,110.9z"/>
		<path id="Shape_12_" class="st0" d="M187.7,435.2h136.5v68.3c0,4.7-3.8,8.5-8.5,8.5H196.3c-4.7,0-8.5-3.8-8.5-8.5V435.2z"/>
		<path id="Shape_13_" class="st0" d="M136.4,213.6h-0.1c-4.6,0-8.3,3.7-8.3,8.3v59.7H42.7v-59.7c0-4.6-3.7-8.3-8.3-8.3h-0.1
			c-3.2,0-6.1-1.8-7.5-4.7c-1.4-2.9-1-6.3,1-8.8l51-43.4c1.6-2,3.9-3.1,6.5-3.1c2.5,0,4.9,1.1,6.5,3.1l51,43.4c2,2.5,2.4,5.9,1,8.8
			S139.6,213.6,136.4,213.6z"/>
		<path id="Shape_14_" class="st0" d="M42.7,435.2H128v42.7c0,4.7-3.8,8.5-8.5,8.5H51.2c-4.7,0-8.5-3.8-8.5-8.5V435.2z"/>
		<path id="Shape_15_" class="st0" d="M478.1,213.6H478c-4.6,0-8.3,3.7-8.3,8.3v59.7h-85.3v-59.7c0-4.6-3.7-8.3-8.3-8.3H376
			c-3.2,0-6.1-1.8-7.5-4.7c-1.4-2.9-1-6.3,1-8.8l51-43.4c1.6-2,4-3.1,6.5-3.1s4.9,1.1,6.5,3.1l51,43.4c2,2.5,2.4,5.9,1,8.8
			C484.2,211.8,481.3,213.6,478.1,213.6L478.1,213.6z"/>
		<path id="Shape_16_" class="st0" d="M384.4,435.2h85.3v42.7c0,4.7-3.8,8.5-8.5,8.5h-68.3c-4.7,0-8.5-3.8-8.5-8.5V435.2z"/>
	</g>
</g>
</svg>
