<?xml version="1.0" encoding="utf-8"?>
<!-- Generator: Adobe Illustrator 22.0.1, SVG Export Plug-In . SVG Version: 6.00 Build 0)  -->
<svg version="1.1" id="Capa_1" xmlns="http://www.w3.org/2000/svg" xmlns:xlink="http://www.w3.org/1999/xlink" x="0px" y="0px"
	 viewBox="0 0 512 512" style="enable-background:new 0 0 512 512;" xml:space="preserve">
<style type="text/css">
	.st0{fill:#6AA6C7;}
</style>
<g>
	<g>
		<path class="st0" d="M55,186c-30.3,0-55,24.7-55,55v60c0,30.3,24.7,55,55,55h5V186H55z"/>
	</g>
</g>
<g>
	<g>
		<path class="st0" d="M371,186h-5v170h5c30.3,0,55-24.7,55-55v-60C426,210.7,401.3,186,371,186z"/>
	</g>
</g>
<g>
	<g>
		<path class="st0" d="M115,326c-30.3,0-55,24.7-55,55s24.7,55,55,55s55-24.7,55-55S145.3,326,115,326z"/>
	</g>
</g>
<g>
	<g>
		<path class="st0" d="M472,106c-22.1,0-40,17.9-40,40s17.9,40,40,40s40-17.9,40-40S494.1,106,472,106z"/>
	</g>
</g>
<g>
	<g>
		<path class="st0" d="M472,216c-5.1,0-10.2-0.6-15-1.6V341c0,19.3-15.7,35-35,35h-56v30h56c35.8,0,65-29.2,65-65V214.4
			C482.2,215.4,477.1,216,472,216z"/>
	</g>
</g>
<g>
	<g>
		<path class="st0" d="M303,76c-38.6,0-70,31.4-70,70s31.4,70,70,70s70-31.4,70-70S341.6,76,303,76z M291.4,157.6l-21-21l21.2-21.2
			l21,21L291.4,157.6z"/>
	</g>
</g>
<g>
	<g>
		<polygon class="st0" points="257.7,386 282.7,436 336,436 336,386 		"/>
	</g>
</g>
<g>
	<g>
		<path class="st0" d="M303,236c-35.3,0-65.9-20.4-80.6-50H142v-20c0-2.8,2.2-5,5-5h67.3c-0.8-4.9-1.3-9.9-1.3-15s0.4-10.1,1.3-15
			H147c-19.3,0-35,15.7-35,35v20H80v117.6c10.7-4.8,22.5-7.6,35-7.6c38.2,0,70.5,25.3,81.2,60H346V225C333.2,232,318.6,236,303,236z
			"/>
	</g>
</g>
</svg>
