<?xml version="1.0" encoding="utf-8"?>
<!-- Generator: Adobe Illustrator 22.0.1, SVG Export Plug-In . SVG Version: 6.00 Build 0)  -->
<svg version="1.1" id="Capa_1" xmlns="http://www.w3.org/2000/svg" xmlns:xlink="http://www.w3.org/1999/xlink" x="0px" y="0px"
	 viewBox="0 0 512 512" style="enable-background:new 0 0 512 512;" xml:space="preserve">
<style type="text/css">
	.st0{fill:#FFFFFF;}
</style>
<g>
	<g>
		<path class="st0" d="M467,0c-8.3,0-15,6.7-15,15v407h30c10.9,0,21.2,2.9,30,8V45C512,20.2,491.8,0,467,0z"/>
	</g>
	<g>
		<path class="st0" d="M226,122c-8.3,0-15,6.7-15,15s6.7,15,15,15s15-6.7,15-15S234.3,122,226,122z M226,122c-8.3,0-15,6.7-15,15
			s6.7,15,15,15s15-6.7,15-15S234.3,122,226,122z M226,122c-8.3,0-15,6.7-15,15s6.7,15,15,15s15-6.7,15-15S234.3,122,226,122z
			 M226,122c-8.3,0-15,6.7-15,15s6.7,15,15,15s15-6.7,15-15S234.3,122,226,122z M226,122c-8.3,0-15,6.7-15,15s6.7,15,15,15
			s15-6.7,15-15S234.3,122,226,122z M226,122c-8.3,0-15,6.7-15,15s6.7,15,15,15s15-6.7,15-15S234.3,122,226,122z M226,122
			c-8.3,0-15,6.7-15,15s6.7,15,15,15s15-6.7,15-15S234.3,122,226,122z M181,392v30h90v-30H181z M226,122c-8.3,0-15,6.7-15,15
			s6.7,15,15,15s15-6.7,15-15S234.3,122,226,122z M181,392v30h90v-30H181z M482,452h-45c-8.3,0-15-6.7-15-15V30H15
			C6.7,30,0,36.7,0,45v452c0,8.3,6.7,15,15,15h467c16.6,0,30-13.4,30-30C512,465.4,498.6,452,482,452z M377,407c0,8.3-6.7,15-15,15
			h-61v15c0,8.3-6.7,15-15,15H166c-8.3,0-15-6.7-15-15v-15l-61,0c-8.3,0-15-6.7-15-15v-90H60c-8.3,0-15-6.7-15-15s6.7-15,15-15h60
			c8.3,0,15,6.7,15,15s-6.7,15-15,15h-15v75l46,0v-15c0-8.3,6.7-15,15-15h120c8.3,0,15,6.7,15,15v15h46v-75c0-8.3,6.7-15,15-15
			s15,6.7,15,15V407z M377,227c0,2.3-0.5,4.6-1.6,6.7l-30,60c-3.7,7.4-12.7,10.4-20.1,6.7c-7.4-3.7-10.4-12.7-6.7-20.1l28.4-56.8
			V152h-78.6c-6.2,17.5-22.9,30-42.4,30s-36.2-12.5-42.4-30H105v75h15c8.3,0,15,6.7,15,15s-6.7,15-15,15H60c-8.3,0-15-6.7-15-15
			s6.7-15,15-15h15v-90c0-8.3,6.7-15,15-15h93.6c6.2-17.5,22.9-30,42.4-30s36.2,12.5,42.4,30H362c8.3,0,15,6.7,15,15L377,227z
			 M181,422h90v-30h-90V422z M226,122c-8.3,0-15,6.7-15,15s6.7,15,15,15s15-6.7,15-15S234.3,122,226,122z M226,122
			c-8.3,0-15,6.7-15,15s6.7,15,15,15s15-6.7,15-15S234.3,122,226,122z M226,122c-8.3,0-15,6.7-15,15s6.7,15,15,15s15-6.7,15-15
			S234.3,122,226,122z M226,122c-8.3,0-15,6.7-15,15s6.7,15,15,15s15-6.7,15-15S234.3,122,226,122z M226,122c-8.3,0-15,6.7-15,15
			s6.7,15,15,15s15-6.7,15-15S234.3,122,226,122z M226,122c-8.3,0-15,6.7-15,15s6.7,15,15,15s15-6.7,15-15S234.3,122,226,122z
			 M226,122c-8.3,0-15,6.7-15,15s6.7,15,15,15s15-6.7,15-15S234.3,122,226,122z M226,122c-8.3,0-15,6.7-15,15s6.7,15,15,15
			s15-6.7,15-15S234.3,122,226,122z M226,122c-8.3,0-15,6.7-15,15s6.7,15,15,15s15-6.7,15-15S234.3,122,226,122z"/>
	</g>
</g>
</svg>
