<?xml version="1.0" encoding="utf-8"?>
<!-- Generator: Adobe Illustrator 22.0.1, SVG Export Plug-In . SVG Version: 6.00 Build 0)  -->
<svg version="1.1" id="Capa_1" xmlns="http://www.w3.org/2000/svg" xmlns:xlink="http://www.w3.org/1999/xlink" x="0px" y="0px"
	 viewBox="0 0 512 512" style="enable-background:new 0 0 512 512;" xml:space="preserve">
<style type="text/css">
	.st0{fill:#6AA6C7;}
</style>
<g>
	<path class="st0" d="M106,391c58.9,0,105-32.9,105-75v-15h-33.7l-45.6-159.5c16.6-3,30.1-6.2,42.3-9.3c20.7-5.1,39.6-9.4,66.9-10.7
		V429l-124.6,83h279.1L271,429V121.5c27.3,1.3,46.2,5.6,66.9,10.7c12.3,3,25.7,6.3,42.3,9.3L334.7,301H301v15c0,42.1,46.1,75,105,75
		s106-32.9,106-75v-15h-34.7l-43.7-152.9C455,149.9,481,151,512,151v-30c-90,0-128.5-27.7-161.6-52.1
		c-23.1-17.1-45.2-34.3-79.4-38.1V0h-30v30.8c-34.2,3.7-56.3,21-79.4,38.1C128.5,93.3,90,121,0,121v30c31,0,57-1.1,78.4-2.9
		L34.7,301H0v15C0,358.1,47.1,391,106,391L106,391z M446.1,301h-80.2L406,160.6L446.1,301z M106,160.6L146.1,301H65.9L106,160.6z"/>
</g>
</svg>
