<?xml version="1.0" encoding="utf-8"?>
<!-- Generator: Adobe Illustrator 22.0.1, SVG Export Plug-In . SVG Version: 6.00 Build 0)  -->
<svg version="1.1" id="Capa_1" xmlns="http://www.w3.org/2000/svg" xmlns:xlink="http://www.w3.org/1999/xlink" x="0px" y="0px"
	 viewBox="0 0 512 512" style="enable-background:new 0 0 512 512;" xml:space="preserve">
<style type="text/css">
	.st0{fill:#FFFFFF;}
</style>
<g>
	<g>
		<path class="st0" d="M366.6,205.8C335.4,156,257.8,74.3,275.4,7c1.2-4.8-3.8-8.7-8.1-6.2c-27.4,15.7-87,60.3-53,138.7
			c0,0-22.2-19.4-41.2-25.4c-4-1.3-7.9,2.3-7.1,6.4c10.4,49.6-21.1,82.6-35.2,128.7c-12.8,41.6,0.9,78.2,25.3,109
			c4.7,5.9,9.8,11.4,15.2,16.4c-3.3-11.6-4.3-23.9-2.9-36.1c3-26.2,19.6-47.9,35.6-69c10.9-14.3,25.9-33.9,24-43
			c-2-9.8,0.5-19.7,6.8-27.4c6.3-7.7,15.6-12.1,25.6-12.1c7.2,0,14.1,2.3,19.9,6.7c11.5,8.7,27.3,24.2,37,48.8
			c6,15.2,8.7,31.5,8.2,48.7c6.5,3.8,11.7,9.9,14.4,17.3c9.3,25.9,9,54.1-0.2,77.7C394.8,344.8,402.8,263.5,366.6,205.8L366.6,205.8
			z"/>
		<path class="st0" d="M259.2,411c-37.5,0-65.1-32.3-60.9-69.1c4.6-40.1,67.4-80.7,59.3-121.3c-0.5-2.7,2.5-4.7,4.7-3
			c15.4,11.6,48.5,45.9,25.2,114c0,0,12.8-1.5,18.7-13.3c1.2-2.4,4.6-2.2,5.5,0.3C326.6,359.8,308.7,411,259.2,411L259.2,411z"/>
	</g>
	<g>
		<g>
			<path class="st0" d="M0,431.7h160V512H0V431.7z"/>
			<path class="st0" d="M350.6,431.7H512V512H350.6V431.7z"/>
			<path class="st0" d="M261.7,436c-12.9,0-25.6-1.5-37.9-4.3H190V512h130.6v-80.3h-21.4C287,434.6,274.4,436,261.7,436z"/>
		</g>
		<g>
			<path class="st0" d="M430.7,331.7H512v70h-81.3L430.7,331.7z"/>
			<path class="st0" d="M0,331.7h79.5v70H0V331.7z"/>
			<g>
				<path class="st0" d="M130.8,372.8c-8.6-10.7-15.7-21.7-21.3-32.9v61.8h50.7C149.5,393.4,139.6,383.8,130.8,372.8z"/>
				<path class="st0" d="M361.2,401.7h39.5v-48.9C391,371.8,377.6,388.4,361.2,401.7z"/>
			</g>
		</g>
		<g>
			<path class="st0" d="M99.8,233.6c1.7-5.6,3.6-11,5.7-16.1H0v84.2h96.2C91.7,279.2,92.8,256.3,99.8,233.6L99.8,233.6z"/>
			<path class="st0" d="M408.1,217.5c9.6,26.9,12.6,56.1,8.6,84.2H512v-84.2H408.1z"/>
		</g>
	</g>
</g>
</svg>
