<?xml version="1.0" encoding="UTF-8" ?>
<!DOCTYPE svg PUBLIC "-//W3C//DTD SVG 1.1//EN" "http://www.w3.org/Graphics/SVG/1.1/DTD/svg11.dtd">
<svg width="52pt" height="52pt" viewBox="0 0 52 52" version="1.1" xmlns="http://www.w3.org/2000/svg">
<g id="#6aa6c6ff">
<path fill="#6aa6c6" opacity="1.00" d=" M 1.73 0.00 L 50.43 0.00 C 50.01 2.16 51.11 4.23 52.00 6.12 L 52.00 9.45 C 51.67 11.44 51.07 13.36 50.45 15.27 C 34.15 15.23 17.85 15.24 1.55 15.27 C 0.94 13.39 0.35 11.50 0.00 9.56 L 0.00 6.10 C 1.02 4.21 1.71 2.16 1.73 0.00 Z" />
<path fill="#6aa6c6" opacity="1.00" d=" M 3.13 18.36 C 5.17 18.37 7.21 18.38 9.25 18.39 C 9.25 25.49 9.25 32.59 9.25 39.69 C 20.42 39.69 31.58 39.69 42.75 39.69 C 42.75 32.59 42.77 25.50 42.73 18.41 C 44.78 18.39 46.82 18.37 48.87 18.36 C 48.88 29.57 48.87 40.79 48.88 52.00 L 45.76 52.00 C 45.75 49.92 45.74 47.85 45.72 45.78 C 44.75 45.80 43.79 45.82 42.82 45.84 C 42.82 47.89 42.81 49.95 42.81 52.00 L 39.69 52.00 C 39.69 49.94 39.68 47.88 39.68 45.81 C 38.93 45.82 37.44 45.82 36.69 45.82 C 36.69 47.88 36.69 49.94 36.69 52.00 L 33.57 52.00 C 33.56 49.94 33.56 47.88 33.56 45.82 C 32.83 45.82 31.36 45.82 30.63 45.82 C 30.63 47.88 30.63 49.94 30.63 52.00 L 27.50 52.00 C 27.50 49.94 27.50 47.88 27.50 45.82 C 26.75 45.82 25.25 45.82 24.50 45.82 C 24.50 47.88 24.50 49.94 24.50 52.00 L 21.37 52.00 C 21.37 49.94 21.37 47.88 21.37 45.82 C 20.64 45.82 19.17 45.82 18.44 45.82 C 18.44 47.88 18.44 49.94 18.44 52.00 L 15.31 52.00 C 15.31 49.94 15.31 47.88 15.31 45.82 C 14.56 45.82 13.06 45.82 12.32 45.81 C 12.32 47.88 12.31 49.94 12.31 52.00 L 9.19 52.00 C 9.19 49.94 9.18 47.89 9.18 45.83 C 8.21 45.82 7.23 45.81 6.26 45.80 C 6.25 47.86 6.25 49.93 6.24 52.00 L 3.12 52.00 C 3.13 40.79 3.12 29.58 3.13 18.36 Z" />
<path fill="#6aa6c6" opacity="1.00" d=" M 12.25 18.37 C 14.61 18.37 16.97 18.37 19.32 18.38 C 17.82 19.90 16.30 21.42 14.79 22.94 C 18.52 26.68 22.25 30.42 26.00 34.15 C 29.74 30.42 33.48 26.68 37.21 22.94 C 35.70 21.42 34.18 19.90 32.68 18.38 C 35.03 18.37 37.39 18.37 39.75 18.37 C 39.75 24.48 39.75 30.58 39.75 36.69 C 30.58 36.69 21.42 36.69 12.25 36.69 C 12.25 30.58 12.25 24.48 12.25 18.37 M 15.38 30.62 C 15.38 31.60 15.38 32.58 15.37 33.56 C 16.37 33.56 17.38 33.56 18.38 33.56 C 18.37 32.58 18.37 31.61 18.37 30.63 C 17.37 30.63 16.38 30.63 15.38 30.62 M 33.63 30.63 C 33.63 31.61 33.63 32.58 33.62 33.56 C 34.62 33.56 35.62 33.56 36.62 33.56 C 36.62 32.58 36.62 31.60 36.62 30.62 C 35.62 30.63 34.63 30.63 33.63 30.63 Z" />
<path fill="#6aa6c6" opacity="1.00" d=" M 23.46 18.40 C 25.14 18.39 26.83 18.38 28.51 18.38 C 30.02 19.92 31.54 21.45 33.06 22.98 C 30.71 25.33 28.36 27.68 26.00 30.03 C 23.64 27.68 21.29 25.33 18.94 22.97 C 20.46 21.46 21.97 19.94 23.46 18.40 M 24.50 21.44 C 24.50 22.44 24.50 23.44 24.50 24.43 C 25.50 24.44 26.50 24.44 27.49 24.44 C 27.50 23.44 27.50 22.44 27.50 21.44 C 26.50 21.44 25.50 21.44 24.50 21.44 Z" />
</g>
</svg>
