<?xml version="1.0" encoding="utf-8"?>
<!-- Generator: Adobe Illustrator 22.0.1, SVG Export Plug-In . SVG Version: 6.00 Build 0)  -->
<svg version="1.1" id="Слой_1" xmlns="http://www.w3.org/2000/svg" xmlns:xlink="http://www.w3.org/1999/xlink" x="0px" y="0px"
	 viewBox="0 0 149.6 54.6" style="enable-background:new 0 0 149.6 54.6;" xml:space="preserve">
<style type="text/css">
	.st0{clip-path:url(#SVGID_2_);fill:url(#SVGID_3_);}
	.st1{fill:#132D48;}
</style>
<g>
	<g>
		<defs>
			<path id="SVGID_1_" d="M6.8,34.6C6.7,34.5,6.7,34.5,6.8,34.6C2.5,27,0.2,18.5,0,9.9c0-0.2,0.1-0.4,0.2-0.5
				C11.9,0,38.4,0,49.9,9.3l0,0c0.1,0.1,0.2,0.3,0.2,0.5C49.9,18.4,47.9,26,44,33.4l0,0l0,0l0,0c-3,1.1-6,1.9-9.1,2.5
				c5.5-10,5.3-21.6,5.3-21.6c-14-6-27.7-1.5-30.4,0c0.5,10.3,2.7,17.3,5.4,22.1C12.4,35.9,9.6,35.3,6.8,34.6 M25.8,36.3
				c0,0-2.2-2.5-1.7-4.5c0,0-1.4,1.2-0.5,2.8C24.4,36.3,25.7,36.3,25.8,36.3z M21.2,39.1c-6.2-5-6.3-9.9-4.1-14.9
				c0,0,1.4,1.3,1.8,2.7c0,0-0.5-2.2,0.3-4.1c0.8-1.9,1.5-3.5,1.4-4.9c-0.1-1.4-0.1-1.9-0.1-1.9c1.7,2.8,5.9,4.4,6.8,6.5
				c0,0-0.1-1.9,0.3-2.6c0,0,4.4,1.2,4.7,7.1c0,0,0.7-0.5,0.9-1.1c0,0,1.2,2,0,4.9c-1.2,2.9-2.7,3.9-2.5,6.5c0,0,0.1,1.1,0.2,1.5
				c0,0-2.2-0.8-2.6-3c0,0-1.1,1.4-0.4,3c0,0-4.3-0.3-6.1-3.2c0,0-0.7,2.5,0.1,3.9C21.8,39.3,21.4,39.2,21.2,39.1z M28.9,15.5
				c0,0,3.7,3.4,4.2,6.1c0,0,1.9-0.9,0.9-3.1C33,16.4,30.3,15.9,28.9,15.5z M23.9,15.2c0,0,0.6,0.8,1.4,1c0.8,0.3,1.9,0.8,2.4,1.7
				c0,0,0.2,0.5,0.1,0.7c0,0-1.4,0.2-2.5-0.7C24.3,17,23.9,16.1,23.9,15.2z M18.4,17.5c0,0,0.6,2,0.2,3.1c-0.4,1.1-0.5,1.7-0.5,2.2
				c0,0-1.3-0.8-1.1-2.1c0.1-1.4,0.8-2.3,1.1-2.7C18.3,17.6,18.4,17.5,18.4,17.5z M23.1,38.7c0,0,1.3,1.2,2.1,1.5
				c0.8,0.3,1.5,1.1,1.5,1.9c0,0-0.5,0.6-1.4,0C24.4,41.6,23.5,40.6,23.1,38.7z M40.1,39.7c-0.5,0.6-0.9,1.3-1.4,1.9
				c-0.4,0.5-0.7,0.9-1.1,1.3l0,0c-3.4,4.1-7.4,7.9-12.1,11.5c-0.1,0.1-0.3,0.1-0.4,0.1c-0.1,0-0.3,0-0.4-0.1
				c-3.8-2.9-7.2-6-10.2-9.3h0c-1.5-1.5-2.8-3.1-4-4.7c2.9,0.6,5.8,1,8.7,1.1c2,2.1,4.1,3.5,5.9,4.6c2.3-1.3,4.3-3,5.9-4.8
				C34,41.1,37.1,40.5,40.1,39.7z"/>
		</defs>
		<clipPath id="SVGID_2_">
			<use xlink:href="#SVGID_1_"  style="overflow:visible;"/>
		</clipPath>
		<linearGradient id="SVGID_3_" gradientUnits="userSpaceOnUse" x1="-3.5575" y1="48.0638" x2="38.2425" y2="17.7538">
			<stop  offset="0" style="stop-color:#265575"/>
			<stop  offset="1" style="stop-color:#3D8FBF"/>
		</linearGradient>
		<rect class="st0" width="50.1" height="54.6"/>
	</g>

</g>
</svg>
