<?xml version="1.0" encoding="utf-8"?>
<!-- Generator: Adobe Illustrator 22.0.1, SVG Export Plug-In . SVG Version: 6.00 Build 0)  -->
<svg version="1.1" id="Capa_1" xmlns="http://www.w3.org/2000/svg" xmlns:xlink="http://www.w3.org/1999/xlink" x="0px" y="0px"
	 viewBox="0 0 775 436.4" style="enable-background:new 0 0 775 436.4;" xml:space="preserve">
<style type="text/css">
	.st0{fill:#6AA6C7;}
</style>
<g>
	<g>
		<path class="st0" d="M419.6,271.6H33.7C15.1,271.6,0,286.7,0,305.3S15.1,339,33.7,339h385.9c18.6,0,33.7-15.1,33.7-33.7
			C453.4,286.7,438.3,271.6,419.6,271.6z"/>
	</g>
</g>
<g>
	<g>
		<path class="st0" d="M419.6,369H33.7C15.1,369,0,384.1,0,402.7s15.1,33.7,33.7,33.7h385.9c18.6,0,33.7-15.1,33.7-33.7
			C453.4,384.1,438.3,369,419.6,369z"/>
	</g>
</g>
<path class="st0" d="M564.2,141.4c3.1-3.6,2.7-9.1-0.9-12.3l-2.6-2.3c-3.6-3.1-9.1-2.7-12.3,0.9l-43.1,50c-3.1,3.6-2.7,9.1,0.9,12.3
	l2.6,2.3c3.6,3.1,9.1,2.7,12.3-0.9L564.2,141.4z"/>
<path class="st0" d="M544.3,121.9L447.6,21.1l3.8-4.4c3.1-3.6,2.7-9.1-0.9-12.3L448,2.1c-3.6-3.1-9.1-2.7-12.3,0.9l-70.4,81.6
	c-3.1,3.6-2.7,9.1,0.9,12.3l2.6,2.3c3.6,3.1,9.1,2.7,12.3-0.9l3.8-4.4l113.9,80.8L544.3,121.9z"/>
<path class="st0" d="M724,412.6C712.4,231.8,570.3,159,570.3,159l-35.6,38.8C582.2,246.3,586,338.6,584,390c1.6-0.3,3.2-0.7,5.1-0.9
	c17.4-1.5,26.3,6.3,33.4,12.4c5.7,5,10.1,8.7,18,8.1c3.4-0.3,5.7-2.3,9.6-6.2c6-5.9,14.2-13.9,32.4-14.7l2,0
	C706.5,388.6,717.8,404,724,412.6z M569.8,200.4c2.4,2.6,58.4,64.5,75.9,178.6c0.4,2.6-1.4,5-4,5.5c-0.2,0-0.5,0.1-0.7,0.1
	c-2.3,0-4.4-1.7-4.7-4.1c-1.1-7.1-2.4-14-3.7-20.7c-14.4-69.8-43.3-117.3-59-139.2c-6.3-8.8-10.6-13.6-10.7-13.8
	c-1.8-2-1.7-5,0.3-6.8C565,198.4,568,198.5,569.8,200.4z M689.5,367.1c0.4,2.6-1.4,5-4,5.5c-0.2,0-0.5,0.1-0.7,0.1
	c-2.3,0-4.4-1.7-4.7-4.1c-0.6-4.2-1.6-8.1-2.4-12.1c-17-81.6-73.3-135-96.3-153.9c-6-4.9-9.8-7.5-10-7.7c-2.2-1.5-2.8-4.4-1.3-6.6
	c1.5-2.2,4.4-2.8,6.6-1.3C577.7,187.6,671.9,252.4,689.5,367.1z"/>
<path class="st0" d="M522.3,436.4h249c3.3-11.9,5.6-28.5,1.5-34.1c-0.6-0.9-1.6-1.8-3.9-1.8c-7.7,0-13.8,6.8-19.6,13.3
	c-5.8,6.4-11.7,13.1-19.7,13.1c-1.7,0-3.3-0.4-4.9-1c-0.7-0.3-1.4-0.5-2.1-0.8c-2.1-1.1-3.6-3.3-6-6.5c-5.5-7.6-14.6-20.4-31.9-20.4
	l-1.6,0c-14.6,0.6-20.4,6.4-26.1,12c-4.2,4.1-8.5,8.4-15.5,9c-12,1-18.9-5.1-25.1-10.4c-6.7-5.8-13.1-11.2-26.3-10.1
	c-2.6,0.2-4.6,0.7-6.4,1.3c-7.9,2.5-8.4,8.1-8.8,14.4c-0.3,4.4-0.8,11.8-8,12.5c-9.7,0.9-17.8-6.5-25.5-13.7
	c-6.7-6.3-13.5-12.8-20.9-12.8l-1,0c-1.8,0.1-2.4,0.8-2.9,1.5C513.1,407.5,517.5,424.4,522.3,436.4L522.3,436.4z"/>
<path class="st0" d="M419.6,174.1H128.2V87.9c0-4.3,3.5-7.8,7.8-7.8h216l57.5-68.7H92.1c-18,0-32.5,14.6-32.5,32.5v130.2H33.7
	C15.1,174.1,0,189.2,0,207.8c0,18.6,15.1,33.7,33.7,33.7h385.9c18.6,0,33.7-15.1,33.7-33.7C453.4,189.2,438.3,174.1,419.6,174.1z"/>
</svg>
