<?xml version="1.0" encoding="utf-8"?>
<!-- Generator: Adobe Illustrator 22.0.1, SVG Export Plug-In . SVG Version: 6.00 Build 0)  -->
<svg version="1.1" id="Layer_1" xmlns="http://www.w3.org/2000/svg" xmlns:xlink="http://www.w3.org/1999/xlink" x="0px" y="0px"
	 viewBox="0 0 447 447" style="enable-background:new 0 0 447 447;" xml:space="preserve">
<style type="text/css">
	.st0{fill:#FFFFFF;}
</style>
<path class="st0" d="M103.3,375.1c-6.7-7.7-12-16.6-15.5-26.2c-3.5,9.6-8.7,18.5-15.5,26.2H103.3z"/>
<path class="st0" d="M383.4,87.6h48.7c-5.1-9.1-14.4-15.1-24.8-16H72.5c0.4,0.4,0.7,0.9,1.1,1.3c1.1,1.3,2.2,2.6,3.2,4.1
	c0.5,0.7,1.1,1.5,1.6,2.3c1,1.4,1.9,3,2.8,4.5c0.5,0.8,0.9,1.6,1.4,2.4c0.3,0.5,0.5,0.9,0.8,1.4h140.3c4.4,0,8,3.6,8,8s-3.6,8-8,8
	H89.9c0,0.1,0.1,0.3,0.1,0.4c0.7,2.1,1.3,4.3,1.9,6.6c0.3,1.1,0.5,2.1,0.7,3.2c0.4,2,0.9,4.1,1.2,6.2c0.2,1.2,0.4,2.3,0.6,3.5
	c0.3,2.2,0.6,4.5,0.8,6.8c0.1,1,0.2,2.1,0.3,3.1c0.1,0.7,0.1,1.5,0.1,2.2h40.2c4.4,0,8,3.6,8,8s-3.6,8-8,8H95.6
	c0,0.7-0.1,1.5-0.1,2.2c-0.1,1.1-0.2,2.1-0.3,3.1c-0.2,2.3-0.5,4.5-0.8,6.8c-0.2,1.2-0.4,2.3-0.6,3.5c-0.4,2.1-0.8,4.1-1.2,6.2
	c-0.2,1.1-0.5,2.1-0.7,3.2c-0.6,2.2-1.2,4.4-1.9,6.6c-0.2,0.7-0.4,1.5-0.7,2.2c-0.9,2.8-2,5.5-3.1,8.1c-0.2,0.6-0.5,1.1-0.8,1.7
	c-0.9,2-1.9,3.9-2.9,5.8c-0.4,0.8-0.9,1.6-1.4,2.4c-0.9,1.5-1.8,3.1-2.8,4.5c-0.5,0.8-1,1.5-1.6,2.3c-1,1.4-2.1,2.8-3.2,4
	c-0.4,0.4-0.7,0.9-1.1,1.3h334.9c10.4-0.9,19.6-6.9,24.8-16H199.7c-4.4,0-8-3.6-8-8c0-4.4,3.6-8,8-8h239.6c0.3,0,0.6,0.1,1,0.2
	c3.8-10.3,6.1-21.1,6.8-32.1h-39.7c-4.4,0-8-3.6-8-8s3.6-8,8-8H447c-0.6-11-2.9-21.8-6.8-32.1c-0.3,0.1-0.6,0.1-1,0.2h-55.9
	c-4.4,0-8-3.6-8-8C375.4,91.2,379,87.6,383.4,87.6z M167.7,199.4h-47.9c-4.4,0-8-3.6-8-8c0-4.4,3.6-8,8-8h47.9c4.4,0,8,3.6,8,8
	C175.7,195.8,172.1,199.4,167.7,199.4z M215.7,151.5h-47.9c-4.4,0-8-3.6-8-8s3.6-8,8-8h47.9c4.4,0,8,3.6,8,8
	S220.1,151.5,215.7,151.5z M303.5,87.6h47.9c4.4,0,8,3.6,8,8c0,4.4-3.6,8-8,8h-47.9c-4.4,0-8-3.6-8-8
	C295.5,91.2,299.1,87.6,303.5,87.6z M255.6,87.6h16c4.4,0,8,3.6,8,8c0,4.4-3.6,8-8,8h-16c-4.4,0-8-3.6-8-8
	C247.6,91.2,251.2,87.6,255.6,87.6z M383.4,143.5c0,4.4-3.6,8-8,8H247.6c-4.4,0-8-3.6-8-8s3.6-8,8-8h127.8
	C379.8,135.5,383.4,139.1,383.4,143.5z"/>
<path class="st0" d="M72.4,231.3c6.7,7.7,12,16.6,15.5,26.2c3.5-9.6,8.7-18.5,15.5-26.2H72.4z"/>
<path class="st0" d="M407.3,295.2H447c-0.6-11-2.9-21.8-6.8-32.1c-0.3,0.1-0.6,0.1-1,0.2h-55.9c-4.4,0-8-3.6-8-8s3.6-8,8-8h48.7
	c-5.1-9.1-14.4-15.1-24.8-16h-239c0.4,0.4,0.7,0.9,1.1,1.3c1.1,1.3,2.2,2.6,3.2,4.1c0.5,0.7,1.1,1.5,1.6,2.3c1,1.4,1.9,3,2.8,4.5
	c0.5,0.8,0.9,1.6,1.4,2.4c0.3,0.5,0.5,0.9,0.8,1.4h124.3c4.4,0,8,3.6,8,8c0,4.4-3.6,8-8,8H185.7c0,0.1,0.1,0.3,0.1,0.4
	c0.7,2.1,1.3,4.3,1.9,6.6c0.3,1.1,0.5,2.1,0.7,3.2c0.4,2,0.9,4.1,1.2,6.2c0.2,1.2,0.4,2.3,0.6,3.5c0.3,2.2,0.6,4.5,0.8,6.8
	c0.1,1,0.2,2.1,0.3,3.1c0.1,0.7,0.1,1.5,0.1,2.2h40.2c4.4,0,8,3.6,8,8s-3.6,8-8,8h-40.2c0,0.7-0.1,1.5-0.1,2.2
	c-0.1,1.1-0.2,2.1-0.3,3.1c-0.2,2.3-0.5,4.5-0.8,6.8c-0.2,1.2-0.4,2.3-0.6,3.5c-0.4,2.1-0.8,4.1-1.2,6.2c-0.2,1.1-0.5,2.1-0.7,3.2
	c-0.6,2.2-1.2,4.4-1.9,6.6c-0.2,0.7-0.4,1.5-0.7,2.2c-0.9,2.8-2,5.5-3.1,8.1c-0.2,0.6-0.5,1.1-0.8,1.7c-0.9,2-1.9,3.9-2.9,5.8
	c-0.4,0.8-0.9,1.6-1.4,2.4c-0.9,1.5-1.8,3.1-2.8,4.5c-0.5,0.8-1,1.5-1.6,2.3c-1,1.4-2.1,2.8-3.2,4c-0.4,0.4-0.7,0.9-1.1,1.3h239
	c10.4-0.9,19.6-6.9,24.8-16H295.5c-4.4,0-8-3.6-8-8c0-4.4,3.6-8,8-8h143.8c0.3,0,0.6,0.1,1,0.2c3.8-10.3,6.1-21.1,6.8-32.1h-39.7
	c-4.4,0-8-3.6-8-8S402.9,295.2,407.3,295.2z M263.6,359.1h-47.9c-4.4,0-8-3.6-8-8c0-4.4,3.6-8,8-8h47.9c4.4,0,8,3.6,8,8
	C271.6,355.6,268,359.1,263.6,359.1z M311.5,311.2h-47.9c-4.4,0-8-3.6-8-8s3.6-8,8-8h47.9c4.4,0,8,3.6,8,8S315.9,311.2,311.5,311.2z
	 M327.5,255.3c0-4.4,3.6-8,8-8h16c4.4,0,8,3.6,8,8s-3.6,8-8,8h-16C331,263.3,327.5,259.7,327.5,255.3z M375.4,311.2h-31.9
	c-4.4,0-8-3.6-8-8s3.6-8,8-8h31.9c4.4,0,8,3.6,8,8S379.8,311.2,375.4,311.2z"/>
<path class="st0" d="M39.9,375.1c21.6,0,39.9-32.9,39.9-71.9s-18.3-71.9-39.9-71.9S0,264.3,0,303.2S18.3,375.1,39.9,375.1z
	 M35.9,248.6c2.5-1.7,5.7-1.8,8.3-0.4s4.2,4.2,4.2,7.2c-0.1,3-1.8,5.7-4.5,7c-1.7,1.3-12,14.5-12,40.8s10.2,39.5,12.1,40.9
	c3.5,2.5,4.5,7.3,2.3,11c-1.4,2.3-3.9,3.7-6.7,3.8c-1.3,0-2.7-0.4-3.8-1.1c-8.3-4.8-19.9-25-19.9-54.6S27.6,253.5,35.9,248.6z"/>
<path class="st0" d="M135.8,375.1c21.6,0,39.9-32.9,39.9-71.9s-18.3-71.9-39.9-71.9s-39.9,32.9-39.9,71.9S114.1,375.1,135.8,375.1z
	 M131.8,248.6c2.5-1.7,5.7-1.8,8.3-0.4c2.6,1.4,4.2,4.2,4.2,7.2c-0.1,3-1.8,5.7-4.5,7c-1.7,1.3-12,14.5-12,40.8s10.2,39.5,12.1,40.9
	c3.5,2.5,4.5,7.3,2.3,11c-1.4,2.3-3.9,3.7-6.7,3.8c-1.3,0-2.7-0.4-3.8-1.1c-8.3-4.8-19.9-25-19.9-54.6S123.5,253.5,131.8,248.6z"/>
<path class="st0" d="M39.9,215.4c21.6,0,39.9-32.9,39.9-71.9S61.6,71.6,39.9,71.6S0,104.5,0,143.5S18.3,215.4,39.9,215.4z
	 M35.9,88.9c2.5-1.7,5.7-1.8,8.3-0.4c2.6,1.4,4.2,4.2,4.2,7.2c-0.1,3-1.8,5.7-4.5,7c-1.7,1.3-12,14.5-12,40.8s10.2,39.5,12.1,40.9
	c3.5,2.5,4.5,7.3,2.3,11c-1.4,2.3-3.9,3.7-6.7,3.8c-1.3,0-2.7-0.4-3.8-1.1c-8.3-4.8-19.9-25-19.9-54.6S27.6,93.7,35.9,88.9z"/>
</svg>
